<svg width="46" height="56" viewBox="0 0 46 56" fill="none" xmlns="http://www.w3.org/2000/svg">
<g clip-path="url(#clip0_13_2)">
<path fill-rule="evenodd" clip-rule="evenodd" d="M9.41281 26.9894C9.71577 26.3175 10.2954 25.9 10.925 25.9L19.8576 25.9L9.46964 6.02739C9.13163 5.38076 9.10984 4.56129 9.41281 3.88941C9.71578 3.21752 10.2954 2.79995 10.925 2.79995L35.075 2.79995C35.7045 2.79995 36.2841 3.21752 36.5871 3.88941C36.8901 4.56129 36.8683 5.38076 36.5303 6.02739L26.1423 25.9H35.075C35.7045 25.9 36.2841 26.3175 36.5871 26.9894C36.8901 27.6613 36.8683 28.4808 36.5303 29.1274L24.4553 52.2274C24.1386 52.8331 23.5897 53.2 23 53.2C22.4102 53.2 21.8613 52.8331 21.5446 52.2274L9.46964 29.1274C9.13162 28.4808 9.10984 27.6613 9.41281 26.9894ZM14.0673 30.0999L23 47.1884L31.9326 30.0999L14.0673 30.0999ZM23 24.0884L31.9326 6.99995L14.0673 6.99995L23 24.0884Z" fill="#4E4E4E"/>
</g>
<defs>
<clipPath id="clip0_13_2">
<rect width="56" height="46" fill="white" transform="matrix(0 -1 1 0 0 56)"/>
</clipPath>
</defs>
</svg>
